<?xml version="1.0" encoding="utf-8"?>
<!-- Generator: Adobe Illustrator 16.0.0, SVG Export Plug-In . SVG Version: 6.00 Build 0)  -->
<!DOCTYPE svg PUBLIC "-//W3C//DTD SVG 1.1//EN" "http://www.w3.org/Graphics/SVG/1.1/DTD/svg11.dtd">
<svg version="1.1" id="CSSI" xmlns="http://www.w3.org/2000/svg" xmlns:xlink="http://www.w3.org/1999/xlink" x="0px" y="0px"
	 width="1726.066px" height="420px" viewBox="0 0 1726.066 420" enable-background="new 0 0 1726.066 420" xml:space="preserve">
<g>
	<g>
		<path fill="#FFFFFF" d="M16.676,95.221c0-2.717,1.667-4.348,5.336-4.348h80.043c31.35,0,48.025,13.858,48.025,39.4v138.854
			c0,25.543-16.676,39.129-48.025,39.129H22.012c-3.669,0-5.336-1.358-5.336-4.348V95.221z M92.716,272.388
			c8.672,0,13.341-3.532,13.341-10.869V137.882c0-7.336-4.669-11.141-13.341-11.141H62.033v145.646H92.716z"/>
		<path fill="#FFFFFF" d="M323.837,308.256c-3.002,0-4.67-1.358-5.337-3.805l-9.338-39.672h-59.365l-9.005,39.672
			c-0.667,2.446-2.334,3.805-5.336,3.805h-35.686c-3.669,0-5.336-1.631-4.336-4.619l55.363-208.959
			c0.667-2.717,2.668-3.804,5.669-3.804h46.358c3.002,0,5.003,1.087,5.67,3.804l55.363,208.959c0.667,2.988-0.667,4.619-4.67,4.619
			H323.837z M279.479,138.426l-21.345,94.833h42.689L279.479,138.426z"/>
		<path fill="#FFFFFF" d="M494.257,90.873c31.35,0,48.025,13.586,48.025,39.129v28.803c0,2.718-1.668,4.348-5.336,4.348h-34.686
			c-3.335,0-5.336-1.63-5.336-4.348V137.61c0-7.065-4.336-10.869-13.341-10.869h-16.008c-8.338,0-13.341,3.804-13.341,10.869v37.499
			l79.376,21.194c5.669,1.902,8.671,4.892,8.671,10.054v62.77c0,25.543-16.676,39.129-48.025,39.129h-37.354
			c-31.017,0-48.025-13.586-48.025-39.129v-28.531c0-2.989,2.001-4.348,5.336-4.348h34.686c3.668,0,5.336,1.358,5.336,4.348v20.923
			c0,7.337,5.003,10.869,13.341,10.869h16.008c8.672,0,13.341-3.532,13.341-10.869v-36.14l-79.042-21.195
			c-6.004-1.63-9.005-4.891-9.005-10.054v-64.128c0-25.542,17.009-39.129,48.025-39.129H494.257z"/>
		<path fill="#FFFFFF" d="M688.69,95.221c0-2.717,2.001-4.348,5.336-4.348h34.352c4.002,0,5.67,1.63,5.67,4.348v208.688
			c0,2.717-1.668,4.348-5.67,4.348h-34.352c-3.335,0-5.336-1.631-5.336-4.348v-86.41h-42.689v86.41c0,2.717-2.001,4.348-5.336,4.348
			h-34.352c-4.003,0-5.67-1.631-5.67-4.348V95.221c0-2.717,1.667-4.348,5.67-4.348h34.352c3.335,0,5.336,1.63,5.336,4.348v86.41
			h42.689V95.221z"/>
		<path fill="#FFFFFF" d="M926.147,180c0,10.054-9.005,17.662-21.012,19.293v0.543c12.007,1.631,21.012,9.239,21.012,19.293v49.998
			c0,25.543-17.01,39.129-48.359,39.129h-80.043c-3.335,0-5.336-1.631-5.336-4.348V95.221c0-2.989,2.001-4.348,5.336-4.348h80.043
			c31.35,0,48.359,13.586,48.359,39.129V180z M881.79,137.61c0-7.065-4.336-10.869-13.341-10.869H838.1v54.89h30.35
			c8.672,0,13.341-3.805,13.341-10.598V137.61z M881.79,228.367c0-7.064-4.336-10.869-13.341-10.869H838.1v54.89h30.35
			c8.672,0,13.341-3.532,13.341-10.869V228.367z"/>
		<path fill="#FFFFFF" d="M984.505,130.002c0-25.542,16.676-39.129,48.025-39.129h37.354c31.35,0,48.025,13.586,48.025,39.129
			v139.125c0,25.543-16.676,39.129-48.025,39.129h-37.354c-31.35,0-48.025-13.586-48.025-39.129V130.002z M1061.546,273.203
			c8.671,0,13.341-3.533,13.341-10.869V136.795c0-7.064-4.67-10.869-13.341-10.869h-19.344c-8.671,0-13.341,3.805-13.341,10.869
			v125.539c0,7.336,4.67,10.869,13.341,10.869H1061.546z"/>
		<path fill="#FFFFFF" d="M1291.666,308.256c-3.002,0-4.67-1.358-5.337-3.805l-9.338-39.672h-59.365l-9.005,39.672
			c-0.667,2.446-2.334,3.805-5.336,3.805H1167.6c-3.669,0-5.336-1.631-4.336-4.619l55.363-208.959
			c0.667-2.717,2.668-3.804,5.67-3.804h46.357c3.002,0,5.003,1.087,5.67,3.804l55.363,208.959c0.667,2.988-0.668,4.619-4.67,4.619
			H1291.666z M1247.309,138.426l-21.345,94.833h42.689L1247.309,138.426z"/>
		<path fill="#FFFFFF" d="M1523.785,196.304c0,18.206-8.338,30.162-24.347,35.868l23.013,71.193c1,3.26-1.001,4.891-4.67,4.891
			h-34.685c-3.335,0-5.003-1.358-5.67-3.805l-22.346-69.019h-23.012v68.476c0,2.717-2.001,4.348-5.336,4.348h-34.686
			c-3.335,0-5.336-1.631-5.336-4.348V95.221c0-2.717,2.001-4.348,5.336-4.348h83.711c31.351,0,48.026,13.586,48.026,39.129V196.304z
			 M1465.087,199.564c8.671,0,13.341-3.805,13.341-10.869V137.61c0-7.065-4.67-10.869-13.341-10.869h-33.018v72.823H1465.087z"/>
		<path fill="#FFFFFF" d="M1582.142,95.221c0-2.717,1.667-4.348,5.336-4.348h80.043c31.35,0,48.025,13.858,48.025,39.4v138.854
			c0,25.543-16.676,39.129-48.025,39.129h-80.043c-3.669,0-5.336-1.358-5.336-4.348V95.221z M1658.182,272.388
			c8.672,0,13.341-3.532,13.341-10.869V137.882c0-7.336-4.669-11.141-13.341-11.141h-30.683v145.646H1658.182z"/>
	</g>
</g>
<g>
</g>
<g>
</g>
<g>
</g>
<g>
</g>
<g>
</g>
<g>
</g>
</svg>
