<?xml version="1.0" encoding="utf-8"?>
<!-- Generator: Adobe Illustrator 16.0.0, SVG Export Plug-In . SVG Version: 6.00 Build 0)  -->
<!DOCTYPE svg PUBLIC "-//W3C//DTD SVG 1.1//EN" "http://www.w3.org/Graphics/SVG/1.1/DTD/svg11.dtd">
<svg version="1.1" id="CSSI" xmlns="http://www.w3.org/2000/svg" xmlns:xlink="http://www.w3.org/1999/xlink" x="0px" y="0px"
	 width="1608.119px" height="420px" viewBox="0 0 1608.119 420" enable-background="new 0 0 1608.119 420" xml:space="preserve">
<g id="HMD">
	<path fill="#F16C50" d="M807.488,349.497V68.503c0,0-0.214-20.226-1.185-26.884c-2.482-16.989-19.062-29.115-36.883-29.628
		l-26.885-0.019h-92.114c-7.431,0-13.442,6.022-13.442,13.442c0,7.43,6.012,13.441,13.442,13.441h117.87
		c6.786,0,12.312,5.526,12.312,12.322v315.644c0,6.795-5.525,12.322-12.32,12.322H510.326c-15.112,0-29.367-5.844-40.13-16.439
		c-32.522-32.036-85.45-32.036-117.973,0c-10.763,10.596-25.015,16.439-40.129,16.439H54.129c-6.797,0-12.312-5.527-12.312-12.322
		V314.65c0-7.422-6.022-13.441-13.442-13.441c-7.422,0-13.442,6.02-13.442,13.441v34.837c0,0,0.205,20.226,1.176,26.884
		c2.535,17.373,19.706,29.656,38.03,29.656h257.955c22.216,0,43.165-8.588,58.996-24.176c22.123-21.788,58.118-21.788,80.241,0
		c15.832,15.588,36.779,24.176,58.995,24.176h257.966c18.314,0,33.744-12.629,38.02-29.656L807.488,349.497z"/>
	<path fill="#F16C50" d="M587.87,11.972H79.875l-26.884,0.019c-17.811,0.514-34.398,12.628-36.883,29.628
		c-0.973,6.656-1.176,26.884-1.176,26.884v182.998c0,7.421,6.02,13.442,13.442,13.442c7.42,0,13.442-6.021,13.442-13.442V51.178
		c0-6.796,5.525-12.322,12.322-12.322H587.87c7.421,0,13.442-6.011,13.442-13.441C601.312,17.995,595.291,11.972,587.87,11.972z"/>
</g>
<g>
	<g>
		<path fill="#F16C4F" d="M231.828,159.349c0,2.717-2.001,4.348-5.336,4.348h-33.35c-3.668,0-5.336-1.63-5.336-4.348V137.61
			c0-7.065-4.669-10.869-13.34-10.869h-17.342c-9.004,0-13.34,3.804-13.34,10.869v123.908c0,7.337,4.669,10.869,13.34,10.869h17.342
			c8.671,0,13.34-3.532,13.34-10.869V239.78c0-2.718,1.667-4.348,5.336-4.348h33.35c3.335,0,5.336,1.63,5.336,4.348v29.347
			c0,25.543-17.008,39.129-48.023,39.129h-37.352c-31.349,0-48.357-13.586-48.357-39.129V130.002
			c0-25.542,17.008-39.129,48.357-39.129h37.352c31.015,0,48.023,13.586,48.023,39.129V159.349z"/>
		<path fill="#F16C4F" d="M375.564,90.873c31.349,0,48.023,13.586,48.023,39.129v28.803c0,2.717-1.668,4.348-5.336,4.348h-34.684
			c-3.335,0-5.336-1.63-5.336-4.348V137.61c0-7.065-4.335-10.869-13.34-10.869h-16.008c-8.337,0-13.34,3.804-13.34,10.869v37.499
			l79.372,21.195c5.669,1.902,8.671,4.891,8.671,10.054v62.77c0,25.543-16.675,39.129-48.023,39.129h-37.352
			c-31.015,0-48.023-13.586-48.023-39.129v-28.531c0-2.989,2.001-4.348,5.336-4.348h34.684c3.668,0,5.336,1.358,5.336,4.348v20.923
			c0,7.337,5.002,10.869,13.34,10.869h16.008c8.671,0,13.34-3.532,13.34-10.869v-36.14l-79.039-21.195
			c-6.003-1.63-9.004-4.891-9.004-10.054v-64.128c0-25.542,17.008-39.129,48.023-39.129H375.564z"/>
		<path fill="#F16C4F" d="M567.326,90.873c31.349,0,48.023,13.586,48.023,39.129v28.803c0,2.717-1.668,4.348-5.336,4.348H575.33
			c-3.335,0-5.336-1.63-5.336-4.348V137.61c0-7.065-4.336-10.869-13.34-10.869h-16.008c-8.338,0-13.34,3.804-13.34,10.869v37.499
			l79.372,21.195c5.669,1.902,8.671,4.891,8.671,10.054v62.77c0,25.543-16.675,39.129-48.023,39.129h-37.352
			c-31.016,0-48.023-13.586-48.023-39.129v-28.531c0-2.989,2.001-4.348,5.336-4.348h34.684c3.668,0,5.336,1.358,5.336,4.348v20.923
			c0,7.337,5.002,10.869,13.34,10.869h16.008c8.671,0,13.34-3.532,13.34-10.869v-36.14l-79.039-21.195
			c-6.002-1.63-9.004-4.891-9.004-10.054v-64.128c0-25.542,17.008-39.129,48.023-39.129H567.326z"/>
		<path fill="#F16C4F" d="M713.733,90.873c3.335,0,5.336,1.63,5.336,4.348v208.688c0,2.717-2.001,4.348-5.336,4.348H679.05
			c-3.669,0-5.336-1.631-5.336-4.348V95.221c0-2.717,1.667-4.348,5.336-4.348H713.733z"/>
	</g>
</g>
<g>
	<g>
		<path fill="#18242C" d="M998.348,159.349c0,2.718-2.002,4.348-5.337,4.348H959.66c-3.669,0-5.337-1.63-5.337-4.348V137.61
			c0-7.065-4.669-10.869-13.34-10.869h-17.343c-9.005,0-13.341,3.804-13.341,10.869v123.908c0,7.337,4.67,10.869,13.341,10.869
			h17.343c8.671,0,13.34-3.532,13.34-10.869V239.78c0-2.718,1.668-4.348,5.337-4.348h33.351c3.335,0,5.337,1.63,5.337,4.348v29.347
			c0,25.543-17.01,39.129-48.026,39.129h-37.353c-31.351,0-48.359-13.586-48.359-39.129V130.002
			c0-25.542,17.009-39.129,48.359-39.129h37.353c31.017,0,48.026,13.586,48.026,39.129V159.349z"/>
		<path fill="#18242C" d="M1056.706,130.002c0-25.542,16.676-39.129,48.025-39.129h37.354c31.35,0,48.025,13.586,48.025,39.129
			v139.125c0,25.543-16.676,39.129-48.025,39.129h-37.354c-31.35,0-48.025-13.586-48.025-39.129V130.002z M1133.747,273.203
			c8.671,0,13.341-3.533,13.341-10.869V136.795c0-7.064-4.67-10.869-13.341-10.869h-19.344c-8.671,0-13.341,3.805-13.341,10.869
			v125.539c0,7.336,4.67,10.869,13.341,10.869H1133.747z"/>
		<path fill="#18242C" d="M1385.545,196.304c0,18.206-8.338,30.162-24.347,35.868l23.013,71.193c1,3.26-1.001,4.891-4.67,4.891
			h-34.685c-3.335,0-5.003-1.358-5.67-3.805l-22.346-69.019h-23.012v68.476c0,2.717-2.001,4.348-5.336,4.348h-34.686
			c-3.335,0-5.336-1.631-5.336-4.348V95.221c0-2.717,2.001-4.348,5.336-4.348h83.711c31.351,0,48.026,13.586,48.026,39.129V196.304z
			 M1326.847,199.564c8.671,0,13.341-3.805,13.341-10.869V137.61c0-7.065-4.67-10.869-13.341-10.869h-33.018v72.823H1326.847z"/>
		<path fill="#18242C" d="M1576.973,122.394c0,2.717-1.335,4.619-5.337,4.619h-83.378v54.346h63.701c3.335,0,5.336,1.631,5.336,4.62
			v26.9c0,2.989-2.001,4.619-5.336,4.619h-63.701v54.89h83.378c4.002,0,5.337,1.358,5.337,4.348v27.173
			c0,2.717-1.335,4.348-5.337,4.348h-122.731c-3.002,0-5.003-1.631-5.003-4.348V95.221c0-2.717,2.001-4.348,5.003-4.348h122.731
			c4.002,0,5.337,1.63,5.337,4.348V122.394z"/>
	</g>
</g>
<g>
</g>
<g>
</g>
<g>
</g>
<g>
</g>
<g>
</g>
<g>
</g>
</svg>
