<?xml version="1.0" encoding="utf-8"?>
<!-- Generator: Adobe Illustrator 16.0.0, SVG Export Plug-In . SVG Version: 6.00 Build 0)  -->
<!DOCTYPE svg PUBLIC "-//W3C//DTD SVG 1.1//EN" "http://www.w3.org/Graphics/SVG/1.1/DTD/svg11.dtd">
<svg version="1.1" id="CSSI" xmlns="http://www.w3.org/2000/svg" xmlns:xlink="http://www.w3.org/1999/xlink" x="0px" y="0px"
	 width="828px" height="838px" viewBox="0 0 828 838" enable-background="new 0 0 828 838" xml:space="preserve">
<path fill="#F06B4F" d="M802,796c0,6.627-5.373,12-12,12H44c-6.627,0-12-5.373-12-12V50c0-6.627,5.373-12,12-12h746
	c6.627,0,12,5.373,12,12V796z"/>
<path fill="#FFFFFF" d="M778.724,773.449c0,6.227-5.048,11.274-11.274,11.274H66.55c-6.227,0-11.274-5.048-11.274-11.274V72.55
	c0-6.227,5.047-11.274,11.274-11.274h700.899c6.227,0,11.274,5.047,11.274,11.274V773.449z"/>
<g>
	<g>
		<path fill="#F16C4F" d="M231.828,383.349c0,2.717-2.001,4.348-5.336,4.348h-33.35c-3.668,0-5.336-1.63-5.336-4.348V361.61
			c0-7.065-4.669-10.869-13.34-10.869h-17.342c-9.004,0-13.34,3.804-13.34,10.869v123.908c0,7.337,4.669,10.869,13.34,10.869h17.342
			c8.671,0,13.34-3.532,13.34-10.869V463.78c0-2.718,1.667-4.348,5.336-4.348h33.35c3.335,0,5.336,1.63,5.336,4.348v29.347
			c0,25.543-17.008,39.129-48.023,39.129h-37.352c-31.349,0-48.357-13.586-48.357-39.129V354.002
			c0-25.542,17.008-39.129,48.357-39.129h37.352c31.015,0,48.023,13.586,48.023,39.129V383.349z"/>
		<path fill="#F16C4F" d="M375.564,314.873c31.348,0,48.023,13.586,48.023,39.129v28.803c0,2.717-1.668,4.348-5.336,4.348h-34.684
			c-3.336,0-5.336-1.63-5.336-4.348V361.61c0-7.065-4.336-10.869-13.34-10.869h-16.008c-8.337,0-13.34,3.804-13.34,10.869v37.499
			l79.372,21.195c5.67,1.902,8.672,4.891,8.672,10.054v62.77c0,25.543-16.676,39.129-48.023,39.129h-37.352
			c-31.015,0-48.023-13.586-48.023-39.129v-28.531c0-2.989,2.001-4.348,5.336-4.348h34.684c3.668,0,5.336,1.358,5.336,4.348v20.923
			c0,7.337,5.002,10.869,13.34,10.869h16.008c8.671,0,13.34-3.532,13.34-10.869v-36.14l-79.039-21.195
			c-6.003-1.63-9.004-4.891-9.004-10.054v-64.128c0-25.542,17.008-39.129,48.023-39.129H375.564z"/>
		<path fill="#F16C4F" d="M567.326,314.873c31.349,0,48.023,13.586,48.023,39.129v28.803c0,2.717-1.668,4.348-5.336,4.348H575.33
			c-3.335,0-5.336-1.63-5.336-4.348V361.61c0-7.065-4.336-10.869-13.34-10.869h-16.008c-8.338,0-13.34,3.804-13.34,10.869v37.499
			l79.372,21.195c5.669,1.902,8.671,4.891,8.671,10.054v62.77c0,25.543-16.675,39.129-48.023,39.129h-37.352
			c-31.016,0-48.023-13.586-48.023-39.129v-28.531c0-2.989,2.001-4.348,5.336-4.348h34.684c3.668,0,5.336,1.358,5.336,4.348v20.923
			c0,7.337,5.002,10.869,13.34,10.869h16.008c8.671,0,13.34-3.532,13.34-10.869v-36.14l-79.039-21.195
			c-6.002-1.63-9.004-4.891-9.004-10.054v-64.128c0-25.542,17.008-39.129,48.023-39.129H567.326z"/>
		<path fill="#F16C4F" d="M713.732,314.873c3.335,0,5.336,1.63,5.336,4.348v208.688c0,2.717-2.001,4.348-5.336,4.348h-34.684
			c-3.668,0-5.336-1.631-5.336-4.348V319.221c0-2.717,1.668-4.348,5.336-4.348H713.732z"/>
	</g>
</g>
<g>
</g>
<g>
</g>
<g>
</g>
<g>
</g>
<g>
</g>
<g>
</g>
</svg>
