<?xml version="1.0" encoding="utf-8"?>
<!-- Generator: Adobe Illustrator 16.0.0, SVG Export Plug-In . SVG Version: 6.00 Build 0)  -->
<!DOCTYPE svg PUBLIC "-//W3C//DTD SVG 1.1//EN" "http://www.w3.org/Graphics/SVG/1.1/DTD/svg11.dtd">
<svg version="1.1" id="CSSI" xmlns="http://www.w3.org/2000/svg" xmlns:xlink="http://www.w3.org/1999/xlink" x="0px" y="0px"
	 width="2219.996px" height="420px" viewBox="0 0 2219.996 420" enable-background="new 0 0 2219.996 420" xml:space="preserve">
<g id="HMD">
	<path fill="#F16C50" d="M807.488,349.497V68.503c0,0-0.214-20.226-1.185-26.884c-2.482-16.989-19.062-29.115-36.883-29.628
		l-26.885-0.019h-92.114c-7.431,0-13.442,6.022-13.442,13.442c0,7.43,6.012,13.441,13.442,13.441h117.87
		c6.786,0,12.312,5.526,12.312,12.322v315.644c0,6.795-5.525,12.322-12.32,12.322H510.326c-15.112,0-29.367-5.844-40.13-16.439
		c-32.522-32.036-85.45-32.036-117.973,0c-10.763,10.596-25.015,16.439-40.129,16.439H54.129c-6.797,0-12.312-5.527-12.312-12.322
		V314.65c0-7.422-6.022-13.441-13.442-13.441c-7.422,0-13.442,6.02-13.442,13.441v34.837c0,0,0.205,20.226,1.176,26.884
		c2.535,17.373,19.706,29.656,38.03,29.656h257.955c22.216,0,43.165-8.588,58.996-24.176c22.123-21.788,58.118-21.788,80.241,0
		c15.832,15.588,36.779,24.176,58.995,24.176h257.966c18.314,0,33.744-12.629,38.02-29.656L807.488,349.497z"/>
	<path fill="#F16C50" d="M587.87,11.972H79.875l-26.884,0.019c-17.811,0.514-34.398,12.628-36.883,29.628
		c-0.973,6.656-1.176,26.884-1.176,26.884v182.998c0,7.421,6.02,13.442,13.442,13.442c7.42,0,13.442-6.021,13.442-13.442V51.178
		c0-6.796,5.525-12.322,12.322-12.322H587.87c7.421,0,13.442-6.011,13.442-13.441C601.312,17.995,595.291,11.972,587.87,11.972z"/>
</g>
<g>
	<g>
		<path fill="#F16C4F" d="M231.828,159.349c0,2.717-2.001,4.348-5.336,4.348h-33.35c-3.668,0-5.336-1.63-5.336-4.348V137.61
			c0-7.065-4.669-10.869-13.34-10.869h-17.342c-9.004,0-13.34,3.804-13.34,10.869v123.908c0,7.337,4.669,10.869,13.34,10.869h17.342
			c8.671,0,13.34-3.532,13.34-10.869V239.78c0-2.718,1.667-4.348,5.336-4.348h33.35c3.335,0,5.336,1.63,5.336,4.348v29.347
			c0,25.543-17.008,39.129-48.023,39.129h-37.352c-31.349,0-48.357-13.586-48.357-39.129V130.002
			c0-25.542,17.008-39.129,48.357-39.129h37.352c31.015,0,48.023,13.586,48.023,39.129V159.349z"/>
		<path fill="#F16C4F" d="M375.564,90.873c31.349,0,48.023,13.586,48.023,39.129v28.803c0,2.717-1.668,4.348-5.336,4.348h-34.684
			c-3.335,0-5.336-1.63-5.336-4.348V137.61c0-7.065-4.335-10.869-13.34-10.869h-16.008c-8.337,0-13.34,3.804-13.34,10.869v37.499
			l79.372,21.195c5.669,1.902,8.671,4.891,8.671,10.054v62.77c0,25.543-16.675,39.129-48.023,39.129h-37.352
			c-31.015,0-48.023-13.586-48.023-39.129v-28.531c0-2.989,2.001-4.348,5.336-4.348h34.684c3.668,0,5.336,1.358,5.336,4.348v20.923
			c0,7.337,5.002,10.869,13.34,10.869h16.008c8.671,0,13.34-3.532,13.34-10.869v-36.14l-79.039-21.195
			c-6.003-1.63-9.004-4.891-9.004-10.054v-64.128c0-25.542,17.008-39.129,48.023-39.129H375.564z"/>
		<path fill="#F16C4F" d="M567.326,90.873c31.349,0,48.023,13.586,48.023,39.129v28.803c0,2.717-1.668,4.348-5.336,4.348H575.33
			c-3.335,0-5.336-1.63-5.336-4.348V137.61c0-7.065-4.336-10.869-13.34-10.869h-16.008c-8.338,0-13.34,3.804-13.34,10.869v37.499
			l79.372,21.195c5.669,1.902,8.671,4.891,8.671,10.054v62.77c0,25.543-16.675,39.129-48.023,39.129h-37.352
			c-31.016,0-48.023-13.586-48.023-39.129v-28.531c0-2.989,2.001-4.348,5.336-4.348h34.684c3.668,0,5.336,1.358,5.336,4.348v20.923
			c0,7.337,5.002,10.869,13.34,10.869h16.008c8.671,0,13.34-3.532,13.34-10.869v-36.14l-79.039-21.195
			c-6.002-1.63-9.004-4.891-9.004-10.054v-64.128c0-25.542,17.008-39.129,48.023-39.129H567.326z"/>
		<path fill="#F16C4F" d="M713.733,90.873c3.335,0,5.336,1.63,5.336,4.348v208.688c0,2.717-2.001,4.348-5.336,4.348H679.05
			c-3.669,0-5.336-1.631-5.336-4.348V95.221c0-2.717,1.667-4.348,5.336-4.348H713.733z"/>
	</g>
</g>
<g>
	<g>
		<path fill="#18242C" d="M1001.683,196.304c0,18.206-8.338,30.162-24.347,35.868l23.013,71.193c1,3.26-1.001,4.891-4.67,4.891
			h-34.685c-3.335,0-5.003-1.358-5.67-3.805l-22.346-69.019h-23.012v68.476c0,2.717-2.001,4.348-5.336,4.348h-34.686
			c-3.335,0-5.336-1.631-5.336-4.348V95.221c0-2.717,2.001-4.348,5.336-4.348h83.711c31.351,0,48.026,13.586,48.026,39.129V196.304z
			 M942.984,199.564c8.671,0,13.341-3.805,13.341-10.869V137.61c0-7.065-4.67-10.869-13.341-10.869h-33.018v72.823H942.984z"/>
		<path fill="#18242C" d="M1193.11,122.394c0,2.717-1.335,4.619-5.337,4.619h-83.378v54.346h63.701c3.335,0,5.336,1.631,5.336,4.62
			v26.9c0,2.989-2.001,4.619-5.336,4.619h-63.701v54.89h83.378c4.002,0,5.337,1.358,5.337,4.348v27.173
			c0,2.717-1.335,4.348-5.337,4.348h-122.731c-3.002,0-5.003-1.631-5.003-4.348V95.221c0-2.717,2.001-4.348,5.003-4.348h122.731
			c4.002,0,5.337,1.63,5.337,4.348V122.394z"/>
		<path fill="#18242C" d="M1326.843,90.873c31.35,0,48.025,13.586,48.025,39.129v28.803c0,2.718-1.668,4.348-5.336,4.348h-34.686
			c-3.335,0-5.336-1.63-5.336-4.348V137.61c0-7.065-4.336-10.869-13.341-10.869h-16.008c-8.338,0-13.341,3.804-13.341,10.869v37.499
			l79.376,21.194c5.669,1.902,8.671,4.892,8.671,10.054v62.77c0,25.543-16.676,39.129-48.025,39.129h-37.354
			c-31.017,0-48.025-13.586-48.025-39.129v-28.531c0-2.989,2.001-4.348,5.336-4.348h34.686c3.668,0,5.336,1.358,5.336,4.348v20.923
			c0,7.337,5.003,10.869,13.341,10.869h16.008c8.672,0,13.341-3.532,13.341-10.869v-36.14l-79.042-21.195
			c-6.004-1.63-9.005-4.891-9.005-10.054v-64.128c0-25.542,17.009-39.129,48.025-39.129H1326.843z"/>
		<path fill="#18242C" d="M1547.961,90.873c3.669,0,5.337,1.63,5.337,4.348v27.173c0,2.717-1.668,4.348-5.337,4.348h-38.687v177.167
			c0,2.989-1.668,4.348-5.337,4.348h-34.685c-3.335,0-5.336-1.358-5.336-4.348V126.741h-38.688c-3.335,0-5.337-1.63-5.337-4.348
			V95.221c0-2.717,2.002-4.348,5.337-4.348H1547.961z"/>
		<path fill="#18242C" d="M1604.986,197.934c0-3.532,2.334-5.434,6.67-5.434h52.695c4.335,0,6.67,1.901,6.67,5.434v25
			c0,3.532-2.335,5.434-6.67,5.434h-52.695c-4.336,0-6.67-1.901-6.67-5.434V197.934z"/>
		<path fill="#18242C" d="M1854.78,308.256c-3.002,0-4.67-1.358-5.337-3.805l-9.338-39.672h-59.365l-9.005,39.672
			c-0.667,2.446-2.334,3.805-5.336,3.805h-35.686c-3.669,0-5.336-1.631-4.336-4.619l55.363-208.959
			c0.667-2.717,2.668-3.804,5.669-3.804h46.358c3.002,0,5.003,1.087,5.67,3.804l55.363,208.959c0.667,2.988-0.667,4.619-4.67,4.619
			H1854.78z M1810.423,138.426l-21.345,94.833h42.689L1810.423,138.426z"/>
		<path fill="#18242C" d="M1949.827,95.221c0-2.717,2.001-4.348,5.336-4.348h80.043c31.35,0,48.025,13.586,48.025,39.129v66.302
			c0,25.271-16.676,39.129-48.025,39.129h-40.021v68.476c0,2.717-1.668,4.348-5.336,4.348h-34.686c-3.335,0-5.336-1.631-5.336-4.348
			V95.221z M2024.533,199.564c9.005,0,13.341-4.076,13.341-10.869V137.61c0-7.065-4.336-10.869-13.341-10.869h-29.349v72.823
			H2024.533z"/>
		<path fill="#18242C" d="M2181.614,90.873c3.335,0,5.336,1.63,5.336,4.348v208.688c0,2.717-2.001,4.348-5.336,4.348h-34.686
			c-3.669,0-5.336-1.631-5.336-4.348V95.221c0-2.717,1.667-4.348,5.336-4.348H2181.614z"/>
	</g>
</g>
<g>
</g>
<g>
</g>
<g>
</g>
<g>
</g>
<g>
</g>
<g>
</g>
</svg>
